<svg width="21" height="21" viewBox="0 0 21 21" fill="none" xmlns="http://www.w3.org/2000/svg">
<mask id="path-1-inside-1_96_499" fill="white">
<path fill-rule="evenodd" clip-rule="evenodd" d="M13.856 2.98358C13.856 1.87901 12.9606 0.983582 11.856 0.983582H9.84889C8.74432 0.983582 7.84889 1.87901 7.84889 2.98358V7.84888H2.98358C1.87901 7.84888 0.983582 8.74431 0.983582 9.84888V11.856C0.983582 12.9606 1.87901 13.856 2.98358 13.856H7.84889V18.7213C7.84889 19.8259 8.74432 20.7213 9.84889 20.7213H11.856C12.9606 20.7213 13.856 19.8259 13.856 18.7213V13.856H18.7213C19.8259 13.856 20.7213 12.9606 20.7213 11.856V9.84888C20.7213 8.74431 19.8259 7.84888 18.7213 7.84888H13.856V2.98358Z"/>
</mask>
<path fill-rule="evenodd" clip-rule="evenodd" d="M13.856 2.98358C13.856 1.87901 12.9606 0.983582 11.856 0.983582H9.84889C8.74432 0.983582 7.84889 1.87901 7.84889 2.98358V7.84888H2.98358C1.87901 7.84888 0.983582 8.74431 0.983582 9.84888V11.856C0.983582 12.9606 1.87901 13.856 2.98358 13.856H7.84889V18.7213C7.84889 19.8259 8.74432 20.7213 9.84889 20.7213H11.856C12.9606 20.7213 13.856 19.8259 13.856 18.7213V13.856H18.7213C19.8259 13.856 20.7213 12.9606 20.7213 11.856V9.84888C20.7213 8.74431 19.8259 7.84888 18.7213 7.84888H13.856V2.98358Z" fill="#FFF6DD"/>
<path d="M7.84889 7.84888V8.84888H8.84889V7.84888H7.84889ZM7.84889 13.856H8.84889V12.856H7.84889V13.856ZM13.856 13.856V12.856H12.856V13.856H13.856ZM13.856 7.84888H12.856V8.84888H13.856V7.84888ZM11.856 1.98358C12.4083 1.98358 12.856 2.4313 12.856 2.98358H14.856C14.856 1.32673 13.5129 -0.0164185 11.856 -0.0164185V1.98358ZM9.84889 1.98358H11.856V-0.0164185H9.84889V1.98358ZM8.84889 2.98358C8.84889 2.4313 9.2966 1.98358 9.84889 1.98358V-0.0164185C8.19204 -0.0164185 6.84889 1.32672 6.84889 2.98358H8.84889ZM8.84889 7.84888V2.98358H6.84889V7.84888H8.84889ZM2.98358 8.84888H7.84889V6.84888H2.98358V8.84888ZM1.98358 9.84888C1.98358 9.29659 2.4313 8.84888 2.98358 8.84888V6.84888C1.32673 6.84888 -0.0164185 8.19202 -0.0164185 9.84888H1.98358ZM1.98358 11.856V9.84888H-0.0164185V11.856H1.98358ZM2.98358 12.856C2.4313 12.856 1.98358 12.4083 1.98358 11.856H-0.0164185C-0.0164185 13.5129 1.32672 14.856 2.98358 14.856V12.856ZM7.84889 12.856H2.98358V14.856H7.84889V12.856ZM8.84889 18.7213V13.856H6.84889V18.7213H8.84889ZM9.84889 19.7213C9.29661 19.7213 8.84889 19.2736 8.84889 18.7213H6.84889C6.84889 20.3781 8.19204 21.7213 9.84889 21.7213V19.7213ZM11.856 19.7213H9.84889V21.7213H11.856V19.7213ZM12.856 18.7213C12.856 19.2736 12.4083 19.7213 11.856 19.7213V21.7213C13.5129 21.7213 14.856 20.3781 14.856 18.7213H12.856ZM12.856 13.856V18.7213H14.856V13.856H12.856ZM18.7213 12.856H13.856V14.856H18.7213V12.856ZM19.7213 11.856C19.7213 12.4083 19.2736 12.856 18.7213 12.856V14.856C20.3781 14.856 21.7213 13.5129 21.7213 11.856H19.7213ZM19.7213 9.84888V11.856H21.7213V9.84888H19.7213ZM18.7213 8.84888C19.2736 8.84888 19.7213 9.29659 19.7213 9.84888H21.7213C21.7213 8.19202 20.3781 6.84888 18.7213 6.84888V8.84888ZM13.856 8.84888H18.7213V6.84888H13.856V8.84888ZM12.856 2.98358V7.84888H14.856V2.98358H12.856Z" fill="black" mask="url(#path-1-inside-1_96_499)"/>
</svg>
