<svg width="40" height="40" viewBox="0 0 40 40" fill="none" xmlns="http://www.w3.org/2000/svg">
<rect x="1" y="6" width="38" height="27.9338" rx="3" fill="#F2E6C5" stroke="black" stroke-width="2"/>
<path d="M8.27152 8.04637C8.27152 11.371 5.57633 14.0662 2.25165 14.0662C1.82174 14.0662 1.40315 14.0213 1 13.9361V9C1 7.34315 2.34315 6 4 6H7.91506C8.14562 6.63793 8.27152 7.32662 8.27152 8.04637Z" fill="#F2E6C5" stroke="black" stroke-width="2"/>
<path d="M37.7484 14.0662C34.4237 14.0662 31.7285 11.371 31.7285 8.04637C31.7285 7.32662 31.8544 6.63793 32.0849 6H36C37.6569 6 39 7.34315 39 9V13.9361C38.5969 14.0213 38.1783 14.0662 37.7484 14.0662Z" fill="#F2E6C5" stroke="black" stroke-width="2"/>
<path d="M2.25165 25.8675C5.57633 25.8675 8.27152 28.5627 8.27152 31.8874C8.27152 32.6072 8.14562 33.2958 7.91506 33.9338H4C2.34315 33.9338 1 32.5906 1 30.9338V25.9976C1.40315 25.9124 1.82174 25.8675 2.25165 25.8675Z" fill="#F2E6C5" stroke="black" stroke-width="2"/>
<path d="M31.7285 31.8874C31.7285 28.5627 34.4237 25.8675 37.7484 25.8675C38.1783 25.8675 38.5969 25.9124 39 25.9976V30.9338C39 32.5906 37.6569 33.9338 36 33.9338H32.0849C31.8544 33.2958 31.7285 32.6072 31.7285 31.8874Z" fill="#F2E6C5" stroke="black" stroke-width="2"/>
<circle cx="20" cy="19.9669" r="4.96027" fill="#F2E6C5" stroke="black" stroke-width="2"/>
</svg>