<svg width="40" height="40" viewBox="0 0 40 40" fill="none" xmlns="http://www.w3.org/2000/svg">
<rect x="0.999985" y="6" width="38" height="27.9338" rx="3" fill="#99AD65" stroke="black" stroke-width="2"/>
<path d="M3.99998 6H7.91405C8.14463 6.63788 8.27141 7.3262 8.27147 8.0459C8.27147 11.3705 5.57648 14.0662 2.25194 14.0664C1.82199 14.0664 1.40317 14.0207 0.999985 13.9355V9C0.999985 7.34315 2.34313 6 3.99998 6Z" fill="#99AD65" stroke="black" stroke-width="2"/>
<path d="M35.9999 6C37.6568 6 38.9999 7.34315 38.9999 9V13.9355C38.5968 14.0207 38.1779 14.0664 37.748 14.0664C34.4235 14.0662 31.7285 11.3705 31.7285 8.0459C31.7285 7.3262 31.8553 6.63788 32.0859 6H35.9999Z" fill="#99AD65" stroke="black" stroke-width="2"/>
<path d="M2.25194 25.8675C5.57637 25.8677 8.27129 28.5626 8.27147 31.8871C8.27147 32.607 8.14471 33.2959 7.91405 33.9339H3.99998C2.34319 33.9339 1.00008 32.5907 0.999985 30.9339V25.9974C1.40312 25.9122 1.82204 25.8675 2.25194 25.8675Z" fill="#99AD65" stroke="black" stroke-width="2"/>
<path d="M37.748 25.8675C38.1779 25.8675 38.5968 25.9123 38.9999 25.9974V30.9339C38.9998 32.5907 37.6567 33.9339 35.9999 33.9339H32.0859C31.8552 33.2959 31.7285 32.607 31.7285 31.8871C31.7286 28.5627 34.4236 25.8677 37.748 25.8675Z" fill="#99AD65" stroke="black" stroke-width="2"/>
<circle cx="20" cy="19.9669" r="4.96027" fill="#99AD65" stroke="black" stroke-width="2"/>
</svg>