<svg width="40" height="40" viewBox="0 0 40 40" fill="none" xmlns="http://www.w3.org/2000/svg">
<mask id="path-1-inside-1_29_29" fill="white">
<path d="M2.72705 2.3768C3.45238 1.79859 4.47071 1.42161 6.3937 1.2155C8.37323 1.00332 10.9969 1 14.7586 1H25.2414C29.0031 1 31.6268 1.00332 33.6064 1.2155C35.5294 1.42161 36.5476 1.79859 37.2729 2.3768C37.9982 2.95503 38.4711 3.76683 38.7297 5.29984C38.9957 6.87793 39 8.96948 39 11.9684V31.0399H9.1367C6.56311 31.0399 5.66336 31.0506 4.97387 31.1678C3.75457 31.375 2.69459 31.8193 1.92176 32.4193C1.66113 32.6217 1.53084 32.7229 1.23028 33.3674C1.05783 33.7373 1 33.9851 1 34.2322V11.9684C1 8.96948 1.00418 6.87793 1.27032 5.29984C1.52887 3.76683 2.00175 2.95503 2.72705 2.3768Z"/>
</mask><path d="M2.72705 2.3768C3.45238 1.79859 4.47071 1.42161 6.3937 1.2155C8.37323 1.00332 10.9969 1 14.7586 1H25.2414C29.0031 1 31.6268 1.00332 33.6064 1.2155C35.5294 1.42161 36.5476 1.79859 37.2729 2.3768C37.9982 2.95503 38.4711 3.76683 38.7297 5.29984C38.9957 6.87793 39 8.96948 39 11.9684V31.0399H9.1367C6.56311 31.0399 5.66336 31.0506 4.97387 31.1678C3.75457 31.375 2.69459 31.8193 1.92176 32.4193C1.66113 32.6217 1.53084 32.7229 1.23028 33.3674C1.05783 33.7373 1 33.9851 1 34.2322V11.9684C1 8.96948 1.00418 6.87793 1.27032 5.29984C1.52887 3.76683 2.00175 2.95503 2.72705 2.3768Z" fill="#F2E6C5" stroke="black" stroke-width="4" mask="url(#path-1-inside-1_29_29)"/>
<mask id="path-2-inside-2_29_29" fill="white">
<path d="M9.1367 28.55H39C38.9917 30.9786 38.9487 32.7896 38.7307 34.2207C38.4711 35.9246 37.9963 36.8269 37.2684 37.4696C36.5402 38.1123 35.518 38.5313 33.5876 38.7604C31.6004 38.9963 28.9666 39 25.1903 39H14.6672C10.8909 39 8.25719 38.9963 6.27003 38.7604C4.33963 38.5313 3.31736 38.1123 2.58925 37.4696C1.86115 36.8269 1.38643 35.9246 1.12689 34.2207C1.10739 34.0927 1.08932 33.9615 1.07251 33.8273C0.977315 33.0665 0.92972 32.6859 1.23028 31.7887C1.53083 30.8918 1.66113 30.751 1.92176 30.4694C2.69458 29.6344 3.75457 29.0163 4.97387 28.7279C5.66336 28.5649 6.5631 28.55 9.1367 28.55Z"/>
</mask>
<path d="M9.1367 28.55H39C38.9917 30.9786 38.9487 32.7896 38.7307 34.2207C38.4711 35.9246 37.9963 36.8269 37.2684 37.4696C36.5402 38.1123 35.518 38.5313 33.5876 38.7604C31.6004 38.9963 28.9666 39 25.1903 39H14.6672C10.8909 39 8.25719 38.9963 6.27003 38.7604C4.33963 38.5313 3.31736 38.1123 2.58925 37.4696C1.86115 36.8269 1.38643 35.9246 1.12689 34.2207C1.10739 34.0927 1.08932 33.9615 1.07251 33.8273C0.977315 33.0665 0.92972 32.6859 1.23028 31.7887C1.53083 30.8918 1.66113 30.751 1.92176 30.4694C2.69458 29.6344 3.75457 29.0163 4.97387 28.7279C5.66336 28.5649 6.5631 28.55 9.1367 28.55Z" fill="#F2E6C5" stroke="black" stroke-width="4" mask="url(#path-2-inside-2_29_29)"/>
<path d="M11 17.9441H23" stroke="black" stroke-width="2" stroke-linecap="round"/>
<path d="M11 10.7275L28.8951 10.7274" stroke="black" stroke-width="2" stroke-linecap="round"/>
</svg>