<svg width="40" height="40" viewBox="0 0 40 40" fill="none" xmlns="http://www.w3.org/2000/svg">
<path d="M14.7588 2H25.2412C28.5531 2 30.9272 2.00328 32.751 2.1416L33.5 2.20996C35.1159 2.38317 35.9267 2.6696 36.4443 3.00977L36.6494 3.15918C37.1245 3.53793 37.5114 4.092 37.7432 5.46484V5.46582C37.9919 6.94164 38 8.93405 38 11.9688V30.04H9.13672C6.92491 30.04 5.87684 30.045 5.11719 30.1367L4.80664 30.1816C3.7709 30.3577 2.80997 30.6933 2 31.165V11.9688C2 9.31344 2.00568 7.45626 2.17383 6.04492L2.25684 5.46582C2.4596 4.26385 2.78115 3.68927 3.17676 3.31055L3.35059 3.15918C3.79488 2.805 4.45916 2.49542 5.85547 2.29102L6.5 2.20996C8.41362 2.00485 10.9739 2 14.7588 2Z" fill="#A7BCEF" stroke="black" stroke-width="2"/>
<path d="M9.13672 29.55H37.9912C37.9757 31.1932 37.9337 32.485 37.8115 33.5461L37.7422 34.0705C37.5332 35.4423 37.1962 36.11 36.7861 36.5461L36.6064 36.7199C36.1609 37.1131 35.5021 37.4528 34.1123 37.6779L33.4697 37.7678C31.5554 37.995 28.9921 38.0002 25.1904 38.0002H14.667C11.3407 38.0002 8.96263 37.9962 7.1377 37.843L6.3877 37.7678C4.77768 37.5767 3.97309 37.2618 3.45605 36.885L3.25098 36.7199C2.82111 36.3405 2.45718 35.7965 2.21289 34.6164L2.11523 34.0705L2.06445 33.7033C2.01464 33.3052 1.99275 33.1065 2.00195 32.9045C2.00821 32.7674 2.03066 32.6067 2.09668 32.3703L2.17871 32.1066C2.32434 31.6721 2.40822 31.486 2.46289 31.3889C2.48282 31.3535 2.49914 31.3279 2.52637 31.2941L2.65527 31.1486C3.20752 30.552 3.95193 30.079 4.82324 29.8059L5.2041 29.7014C5.75044 29.5722 6.50106 29.55 9.13672 29.55Z" fill="#F2E6C5" stroke="black" stroke-width="2"/>
<path d="M10 17.9441H22" stroke="black" stroke-width="2" stroke-linecap="round"/>
<path d="M10 10.7275L27.8951 10.7274" stroke="black" stroke-width="2" stroke-linecap="round"/>
</svg>