<svg width="19" height="19" viewBox="0 0 19 19" fill="none" xmlns="http://www.w3.org/2000/svg">
<path d="M17.4167 10.8958V9.3125C17.4167 8.64829 17.4167 8.05795 17.4065 7.53125H1.59359C1.58337 8.05795 1.58337 8.64829 1.58337 9.3125V10.8958C1.58337 13.8814 1.58337 15.3742 2.51087 16.3016C3.43837 17.2292 4.93114 17.2292 7.91671 17.2292H11.0834C14.0689 17.2292 15.5618 17.2292 16.4892 16.3016C17.4167 15.3742 17.4167 13.8814 17.4167 10.8958Z" fill="#686868"/>
<path d="M6.13545 1.97919C6.13545 1.65127 5.86962 1.38544 5.5417 1.38544C5.21379 1.38544 4.94795 1.65127 4.94795 1.97919V3.22943C3.80848 3.32067 3.06044 3.5446 2.51086 4.09418C1.96129 4.64375 1.73736 5.3918 1.64612 6.53127H17.3539C17.2627 5.3918 17.0388 4.64375 16.4892 4.09418C15.9396 3.5446 15.1916 3.32067 14.0521 3.22943V1.97919C14.0521 1.65127 13.7863 1.38544 13.4584 1.38544C13.1305 1.38544 12.8646 1.65127 12.8646 1.97919V3.1769C12.3379 3.16669 11.7476 3.16669 11.0834 3.16669H7.9167C7.25247 3.16669 6.66213 3.16669 6.13545 3.1769V1.97919Z" fill="#686868"/>
</svg>