<svg width="22" height="19" viewBox="0 0 22 19" fill="none" xmlns="http://www.w3.org/2000/svg">
<path d="M17.6465 0.5C17.6705 0.5 17.6946 0.504463 17.7168 0.513672L17.7783 0.555664L21.4443 4.23926C21.5094 4.30459 21.5174 4.40571 21.4688 4.47949L21.4443 4.50879L7.5752 18.4443C7.54008 18.4795 7.49757 18.495 7.45312 18.4971L7.42285 18.4951C7.41191 18.4951 7.40154 18.4974 7.3916 18.498C7.37009 18.4971 7.34884 18.4945 7.3291 18.4863L7.26855 18.4453L0.555664 11.7021H0.554688C0.51932 11.6661 0.500035 11.6172 0.5 11.5674C0.5 11.5421 0.505103 11.5171 0.514648 11.4941L0.555664 11.4326L4.22266 7.74805C4.27733 7.69317 4.35689 7.67954 4.42383 7.70703L4.48535 7.74805L7.06641 10.3418L7.4209 10.6973L7.77539 10.3418L17.5156 0.554688C17.5511 0.519059 17.5984 0.50008 17.6465 0.5Z" fill="#FFF6DD" stroke="black"/>
</svg>