<svg width="40" height="40" viewBox="0 0 40 40" fill="none" xmlns="http://www.w3.org/2000/svg">
<path d="M9.8039 23.4921V23.4378L9.79803 23.3839C9.75041 22.9462 9.70997 22.527 9.67104 22.1228L9.6697 22.1089C9.63148 21.712 9.5944 21.3271 9.554 20.9642C9.47331 20.2395 9.37386 19.5462 9.20175 18.9488C9.03043 18.3542 8.7595 17.7529 8.26581 17.3038C7.80476 16.8844 7.23879 16.6773 6.60927 16.6355L5.44483 16.0714C5.45034 12.3383 5.52877 8.61088 6.52633 5.76123C7.04371 4.28327 7.78645 3.11331 8.83592 2.30814C9.87686 1.50952 11.3103 1 13.3421 1H26.7194C28.8786 1 30.3637 1.5217 31.4143 2.32694C32.4705 3.13644 33.1897 4.31059 33.6706 5.7977C34.5681 8.57257 34.5598 12.1461 34.5514 15.7677C34.5513 15.7839 34.5513 15.8001 34.5513 15.8163H33.2438H32.9435L32.6928 15.9817C32.3713 16.194 32.0115 16.4468 31.6901 16.8068C31.3583 17.1785 31.1018 17.6239 30.9094 18.196C30.5429 19.286 30.3923 20.8996 30.3923 23.4921V31.8889H9.8039V23.4921Z" fill="#F2E6C5" stroke="black" stroke-width="2"/>
<path d="M27.3276 24.1204H28.3276V23.1204V19.3495C28.3276 17.3812 29.0546 16.1875 30.0179 15.4563C31.0243 14.6923 32.4003 14.3519 33.7778 14.3519C35.8612 14.3519 39 16.1169 39 20.0139C39 21.1098 38.7952 21.8669 38.4832 22.4589C38.1665 23.0599 37.7028 23.561 37.0715 24.1001L36.7208 24.3995V24.8606V38.3345C36.7208 38.6156 36.6404 38.8297 36.5607 38.9461C36.5433 38.9715 36.5291 38.9887 36.5184 39H28.53C28.5194 38.9887 28.5051 38.9715 28.4877 38.9461C28.4081 38.8297 28.3276 38.6156 28.3276 38.3345V34.8912V33.8912H27.3276H12.6724H11.6724V34.8912V38.3345C11.6724 38.6156 11.5919 38.8297 11.5123 38.9461C11.4949 38.9715 11.4806 38.9887 11.47 39H3.4816C3.47094 38.9887 3.45667 38.9715 3.43926 38.9461C3.35965 38.8297 3.2792 38.6156 3.2792 38.3345V24.8606V24.3995L2.92854 24.1001C2.29716 23.561 1.8335 23.0599 1.51678 22.4589C1.20475 21.8669 1 21.1098 1 20.0139C1 16.8293 3.43171 14.3519 6.22222 14.3519C7.59966 14.3519 8.97572 14.6923 9.98208 15.4563C10.9454 16.1875 11.6724 17.3812 11.6724 19.3495V23.1204V24.1204H12.6724H27.3276ZM36.4962 39.0191C36.4961 39.0189 36.4983 39.0171 36.5028 39.0148C36.4985 39.0183 36.4962 39.0194 36.4962 39.0191ZM28.5523 39.0191C28.5522 39.0195 28.55 39.0183 28.5456 39.0148C28.5501 39.0171 28.5523 39.0188 28.5523 39.0191ZM11.4477 39.0191C11.4476 39.0189 11.4498 39.0171 11.4544 39.0148C11.4501 39.0183 11.4478 39.0194 11.4477 39.0191ZM3.50385 39.0191C3.50379 39.0194 3.5015 39.0183 3.49717 39.0148C3.50174 39.0171 3.50391 39.0189 3.50385 39.0191Z" fill="#F2E6C5" stroke="black" stroke-width="2"/>
</svg>