<svg width="40" height="40" viewBox="0 0 40 40" fill="none" xmlns="http://www.w3.org/2000/svg">
<path d="M9.80382 23.4375L9.79796 23.3838C9.75035 22.9463 9.70992 22.5271 9.67101 22.123C9.63231 21.7213 9.59469 21.3309 9.55382 20.9639C9.47314 20.2393 9.37332 19.5464 9.20128 18.9492C9.02995 18.3546 8.75942 17.7528 8.26573 17.3037C7.80475 16.8844 7.23887 16.6775 6.60948 16.6357L5.44542 16.0713C5.45093 12.3382 5.52893 8.61036 6.52647 5.76074C7.04382 4.28307 7.78676 3.11367 8.83604 2.30859C9.87695 1.51 11.3102 1.00003 13.3419 1H26.7198C28.8788 1.00007 30.3636 1.52196 31.4142 2.32715C32.4704 3.13665 33.19 4.31074 33.671 5.79785C34.5724 8.58512 34.5583 12.1783 34.5499 15.8164H32.9435L32.6925 15.9814C32.3711 16.1937 32.0118 16.4469 31.6905 16.8066C31.3587 17.1783 31.1017 17.6242 30.9093 18.1963C30.5428 19.2862 30.3927 20.9 30.3927 23.4922V31.8887H9.80382V23.4375Z" fill="#C06C3B" stroke="black" stroke-width="2"/>
<path d="M3.2793 24.3997L2.92871 24.0999C2.2974 23.5609 1.83331 23.0601 1.5166 22.4593C1.20459 21.8672 1.00001 21.1098 1 20.0139C1 16.8294 3.43214 14.3518 6.22266 14.3518C7.59995 14.3519 8.97617 14.6925 9.98242 15.4563C10.9456 16.1876 11.6729 17.3818 11.6729 19.3499V24.1204H28.3281V19.3499C28.3281 17.3818 29.0544 16.1876 30.0176 15.4563C31.0238 14.6925 32.4001 14.3519 33.7773 14.3518C35.8607 14.3518 39 16.1169 39 20.0139C39 21.1098 38.7954 21.8672 38.4834 22.4593C38.1667 23.0601 37.7026 23.5609 37.0713 24.0999L36.7207 24.3997V38.3343C36.7207 38.6151 36.6401 38.8292 36.5605 38.9456C36.5415 38.9734 36.5236 38.9891 36.5127 39.0003H28.5352C28.5243 38.9891 28.5062 38.9732 28.4873 38.9456C28.4078 38.8291 28.3281 38.6149 28.3281 38.3343V33.8909H11.6729V38.3343C11.6729 38.6149 11.5922 38.8291 11.5127 38.9456C11.4938 38.9732 11.4757 38.9891 11.4648 39.0003H3.4873C3.47639 38.9891 3.45849 38.9734 3.43945 38.9456C3.35989 38.8292 3.2793 38.6151 3.2793 38.3343V24.3997Z" fill="#F58442" stroke="black" stroke-width="2"/>
</svg>