<svg width="82" height="82" viewBox="0 0 82 82" fill="none" xmlns="http://www.w3.org/2000/svg">
<path d="M49.2773 17.2637L49.4893 17.6768L49.917 17.4971L66.6484 10.4316L62.5977 28.1377L62.4941 28.5898L62.9385 28.7266L80.2959 34.0703L65.8125 45.0293L65.4424 45.3096L65.6943 45.7002L75.5566 60.9512L57.418 60.0361L56.9541 60.0127L56.8965 60.4736L54.6465 78.4961L41.3398 66.1357L41 65.8193L40.6602 66.1357L27.3525 78.4961L25.1035 60.4736L25.0459 60.0127L24.582 60.0361L6.44238 60.9512L16.3057 45.7002L16.5576 45.3096L16.1875 45.0293L1.70312 34.0703L19.0615 28.7266L19.5059 28.5898L19.4023 28.1377L15.3506 10.4316L32.083 17.4971L32.5107 17.6768L32.7227 17.2637L41 1.09668L49.2773 17.2637Z" fill="#99AD65" stroke="black"/>
<path d="M41 28.75C41.5523 28.75 42 29.1977 42 29.75V31.25H44.3076C47.1752 31.2502 49.4998 33.5748 49.5 36.4424C49.5 36.9947 49.0523 37.4424 48.5 37.4424C47.9477 37.4424 47.5 36.9947 47.5 36.4424C47.4998 34.6794 46.0707 33.2502 44.3076 33.25H42V40H44.125C47.0935 40 49.5 42.4065 49.5 45.375C49.5 48.3435 47.0935 50.75 44.125 50.75H42V52.25C42 52.8023 41.5523 53.25 41 53.25C40.4477 53.25 40 52.8023 40 52.25V50.75H37.7842C34.866 50.75 32.5 48.384 32.5 45.4658C32.5002 44.9137 32.9478 44.4658 33.5 44.4658C34.0522 44.4658 34.4998 44.9137 34.5 45.4658C34.5 47.2794 35.9706 48.75 37.7842 48.75H40V42H37.875C34.9065 42 32.5 39.5935 32.5 36.625C32.5 33.6565 34.9065 31.25 37.875 31.25H40V29.75C40 29.1977 40.4477 28.75 41 28.75ZM42 48.75H44.125C45.989 48.75 47.5 47.239 47.5 45.375C47.5 43.511 45.989 42 44.125 42H42V48.75ZM37.875 33.25C36.011 33.25 34.5 34.761 34.5 36.625C34.5 38.489 36.011 40 37.875 40H40V33.25H37.875Z" fill="#6C7948"/>
</svg>