<svg width="29" height="19" viewBox="0 0 29 19" fill="none" xmlns="http://www.w3.org/2000/svg">
<path d="M2.32313 12.0201C4.84401 14.5262 9.24039 18 14.2422 18C19.2439 18 23.6395 14.5262 26.1604 12.0201C26.8253 11.3592 27.1588 11.0275 27.3704 10.3786C27.5216 9.91558 27.5216 9.08456 27.3704 8.62159C27.1588 7.97261 26.8253 7.64096 26.1604 6.97994C23.6395 4.47381 19.2439 1 14.2422 1C9.24039 1 4.84401 4.47381 2.32313 6.97994C1.65777 7.64139 1.32506 7.97232 1.11328 8.62159C0.962238 9.08456 0.962238 9.91558 1.11328 10.3786C1.32506 11.0278 1.65777 11.3586 2.32313 12.0201Z" stroke="#686868" stroke-width="2" stroke-linecap="round" stroke-linejoin="round"/>
<path d="M11.4086 9.5001C11.4086 11.065 12.6771 12.3335 14.2419 12.3335C15.8068 12.3335 17.0753 11.065 17.0753 9.5001C17.0753 7.93524 15.8068 6.66675 14.2419 6.66675C12.6771 6.66675 11.4086 7.93524 11.4086 9.5001Z" stroke="#686868" stroke-width="2" stroke-linecap="round" stroke-linejoin="round"/>
</svg>
