<svg width="29" height="19" viewBox="0 0 29 19" fill="none" xmlns="http://www.w3.org/2000/svg">
<path d="M14.2422 0C19.6693 0 24.3157 3.73605 26.8652 6.27051L27.3223 6.73145C27.7525 7.18172 28.0984 7.62793 28.3213 8.31152L28.3623 8.45312C28.4511 8.78974 28.4834 9.16739 28.4834 9.5C28.4834 9.83289 28.4513 10.211 28.3623 10.5479L28.3213 10.6885C28.0984 11.372 27.7524 11.8183 27.3223 12.2686L26.8652 12.7295C24.3157 15.2639 19.6693 19 14.2422 19C9.15415 19 4.75125 15.7166 2.12012 13.2178L1.61816 12.7295C0.974326 12.0894 0.459475 11.6001 0.162109 10.6885L0.163086 10.6875C0.0428555 10.3184 0 9.87987 0 9.5C5.21334e-06 9.11981 0.0426233 8.68075 0.163086 8.31152H0.162109C0.45946 7.39992 0.974227 6.91066 1.61816 6.27051L2.12012 5.78223C4.75126 3.28337 9.15415 1.0258e-05 14.2422 0ZM14.2422 2C9.95194 2.00001 6.04043 4.82243 3.51465 7.2168L3.02832 7.68945C2.34172 8.37202 2.19064 8.54486 2.06445 8.93164L2.04102 9.02246C2.01872 9.13294 2 9.29988 2 9.5C2 9.70007 2.01873 9.86705 2.04102 9.97754L2.06445 10.0684L2.11328 10.2051C2.23613 10.5066 2.42742 10.7132 3.02832 11.3105L3.51465 11.7832C6.04043 14.1776 9.95194 17 14.2422 17C18.8184 17 22.9626 13.7883 25.4551 11.3105L25.8779 10.8828C26.216 10.5281 26.3254 10.3582 26.4199 10.0684L26.4424 9.97754C26.4647 9.86711 26.4834 9.70017 26.4834 9.5C26.4834 9.29978 26.4647 9.13287 26.4424 9.02246L26.4199 8.93164C26.3254 8.64179 26.216 8.47193 25.8779 8.11719L25.4551 7.68945C22.9626 5.21165 18.8184 2 14.2422 2ZM14.2412 5.66699C16.3582 5.66699 18.075 7.38301 18.0752 9.5C18.0751 11.617 16.3583 13.334 14.2412 13.334C12.1245 13.3336 10.4083 11.6168 10.4082 9.5C10.4084 7.38325 12.1245 5.66738 14.2412 5.66699ZM14.2412 7.66699C13.2291 7.66738 12.4084 8.48782 12.4082 9.5C12.4083 10.5122 13.229 11.3336 14.2412 11.334C15.2537 11.334 16.0751 10.5125 16.0752 9.5C16.075 8.48758 15.2537 7.66699 14.2412 7.66699Z" fill="#686868"/>
</svg>