<svg width="385" height="339" viewBox="0 0 385 339" fill="none" xmlns="http://www.w3.org/2000/svg">
<g opacity="0.74">
<path d="M158.453 122.128C168.202 110.197 187.449 118.957 184.854 134.145L180.791 157.934C179.911 163.086 181.776 168.325 185.715 171.762L205.426 188.96C216.652 198.756 208.277 217.155 193.518 215.123L167.603 211.554C162.425 210.841 157.249 212.875 153.942 216.923L138.671 235.611C128.922 247.542 109.676 238.782 112.27 223.594L116.334 199.805C117.214 194.653 115.348 189.414 111.41 185.977L91.6989 168.779C80.4728 158.984 88.8475 140.584 103.607 142.617L129.521 146.185C134.7 146.898 139.876 144.864 143.183 140.816L158.453 122.128Z" fill="#99AD65"/>
<path d="M79.3615 168.827C81.7855 162.337 90.3264 160.905 94.7352 166.249L169.684 257.104C174.093 262.448 171.063 270.561 164.23 271.707L48.0733 291.188C41.2405 292.334 35.7295 285.653 38.1535 279.163L79.3615 168.827Z" fill="#FBCD6A"/>
<rect x="57.6957" y="58.4895" width="73" height="22.2174" rx="2" transform="rotate(-30 57.6957 58.4895)" fill="#A7BCEF"/>
<rect x="86.2303" y="12.6957" width="73" height="22.2174" rx="2" transform="rotate(60 86.2303 12.6957)" fill="#A7BCEF"/>
<path d="M207.946 96.6891C216.897 121.821 242.303 127.863 261.679 134.47C268.516 136.802 275.068 138.955 280.202 137.127C285.336 135.298 289.052 129.487 292.876 123.358C303.713 105.991 319.579 85.2486 310.627 60.117C301.676 34.9852 269.695 34.5355 255.199 66.9253C223.491 50.9923 198.995 71.5573 207.946 96.6891Z" fill="#E9A5C2"/>
<path opacity="0.74" d="M364.424 55.2074C371.136 56.9267 373.469 65.2667 368.624 70.2193L343.796 95.6012C338.951 100.554 330.561 98.4046 328.695 91.7327L319.128 57.5392C317.261 50.8673 323.317 44.6765 330.028 46.3958L364.424 55.2074Z" fill="#99AD65"/>
<path opacity="0.74" d="M308.5 140L326.314 184.493L370.372 165.628L351.507 209.686L396 227.5L351.507 245.314L370.372 289.372L326.314 270.507L308.5 315L290.686 270.507L246.628 289.372L265.493 245.314L221 227.5L265.493 209.686L246.628 165.628L290.686 184.493L308.5 140Z" fill="#A7BCEF"/>
</g>
</svg>