<svg width="617" height="371" viewBox="0 0 617 371" fill="none" xmlns="http://www.w3.org/2000/svg">
	<path d="M439.355 214.448C433.676 234.989 423.486 254.004 409.527 270.107C395.569 286.211 378.193 298.998 358.667 307.536C339.141 316.074 317.956 320.148 296.656 319.462C275.356 318.776 254.477 313.347 235.541 303.57C216.605 293.793 200.088 279.915 187.195 262.947C174.301 245.978 165.356 226.347 161.01 205.484C156.664 184.62 157.027 163.05 162.073 142.345C167.119 121.64 176.721 102.321 190.179 85.7964L259.895 142.574C254.883 148.728 251.307 155.923 249.428 163.634C247.548 171.345 247.413 179.379 249.032 187.149C250.65 194.919 253.982 202.23 258.784 208.55C263.586 214.869 269.737 220.038 276.789 223.679C283.842 227.32 291.617 229.342 299.55 229.598C307.483 229.853 315.373 228.336 322.645 225.156C329.917 221.976 336.388 217.214 341.587 211.217C346.786 205.219 350.581 198.137 352.696 190.488L439.355 214.448Z" fill="#99AD65"/>
	<path d="M299.809 152.128C309.558 140.197 328.805 148.957 326.211 164.145L322.147 187.934C321.267 193.086 323.133 198.325 327.071 201.762L346.782 218.96C358.008 228.756 349.633 247.155 334.874 245.123L308.959 241.554C303.781 240.841 298.605 242.875 295.298 246.923L280.028 265.611C270.279 277.542 251.032 268.782 253.626 253.594L257.69 229.805C258.57 224.653 256.704 219.414 252.766 215.977L233.055 198.779C221.829 188.984 230.204 170.584 244.963 172.617L270.878 176.185C276.056 176.898 281.232 174.864 284.539 170.816L299.809 152.128Z" fill="#FBCD6A"/>
	<path d="M529.5 167L547.314 211.493L591.372 192.628L572.507 236.686L617 254.5L572.507 272.314L591.372 316.372L547.314 297.507L529.5 342L511.686 297.507L467.628 316.372L486.493 272.314L442 254.5L486.493 236.686L467.628 192.628L511.686 211.493L529.5 167Z" fill="#A7BCEF"/>
	<path d="M79.3615 200.827C81.7855 194.337 90.3264 192.905 94.7352 198.249L169.684 289.104C174.093 294.448 171.063 302.561 164.23 303.707L48.0733 323.188C41.2405 324.334 35.7295 317.653 38.1535 311.163L79.3615 200.827Z" fill="#FBCD6A"/>
	<path d="M547.424 78.2074C554.136 79.9267 556.469 88.2667 551.624 93.2193L526.796 118.601C521.951 123.554 513.561 121.405 511.695 114.733L502.128 80.5392C500.261 73.8673 506.317 67.6765 513.028 69.3958L547.424 78.2074Z" fill="#99AD65"/>
	<rect x="57.6957" y="90.4895" width="73" height="22.2174" rx="2" transform="rotate(-30 57.6957 90.4895)" fill="#A7BCEF"/>
	<rect x="86.2303" y="44.6957" width="73" height="22.2174" rx="2" transform="rotate(60 86.2303 44.6957)" fill="#A7BCEF"/>
	<path d="M335.946 78.6891C344.897 103.821 370.303 109.863 389.679 116.47C396.516 118.802 403.068 120.955 408.202 119.127C413.336 117.298 417.052 111.487 420.876 105.358C431.713 87.9909 447.579 67.2486 438.627 42.117C429.676 16.9852 397.695 16.5355 383.199 48.9253C351.491 32.9923 326.995 53.5573 335.946 78.6891Z" fill="#E9A5C2"/>
</svg>