<svg width="14" height="14" viewBox="0 0 14 14" fill="none" xmlns="http://www.w3.org/2000/svg">
<path d="M9.95577 1.3251C10.2083 1.22052 10.4789 1.16669 10.7522 1.16669C11.0255 1.16669 11.2961 1.22052 11.5486 1.3251C11.8011 1.42969 12.0305 1.58298 12.2238 1.77623C12.417 1.96948 12.5703 2.1989 12.6749 2.45139C12.7795 2.70388 12.8333 2.9745 12.8333 3.24779C12.8333 3.52108 12.7795 3.7917 12.6749 4.0442C12.5703 4.29669 12.417 4.52611 12.2238 4.71936L11.9215 5.02162L8.97839 2.07848L9.28062 1.77623C9.47388 1.58298 9.7033 1.42969 9.95577 1.3251Z" fill="#686868"/>
<path d="M8.15344 2.90344L2.13181 8.92508C2.06002 8.99683 2.00822 9.08613 1.98151 9.18408L1.18719 12.0965C1.13211 12.2985 1.18947 12.5145 1.33749 12.6625C1.48552 12.8105 1.7015 12.8679 1.90346 12.8128L4.81594 12.0185C4.91388 11.9918 5.00315 11.94 5.07493 11.8682L11.0965 5.84659L8.15344 2.90344Z" fill="#686868"/>
</svg>