<svg width="50" height="50" viewBox="0 0 50 50" fill="none" xmlns="http://www.w3.org/2000/svg">
<circle cx="25" cy="25" r="25" fill="#E9A5C2"/>
<path fill-rule="evenodd" clip-rule="evenodd" d="M28.9433 30.9183L36.1504 38.1254C36.6958 38.6708 37.5801 38.6708 38.1254 38.1254C38.6708 37.5801 38.6708 36.6958 38.1254 36.1504L30.9667 28.9917C31.0045 28.945 31.0419 28.8981 31.079 28.8509C31.1461 28.7653 31.2119 28.6786 31.2764 28.5909C32.5413 26.8716 33.2922 24.7662 33.2922 22.48C33.2922 16.6903 28.526 12 22.6461 12C16.7662 12 12 16.6903 12 22.48C12 28.2618 16.7662 32.9521 22.6461 32.9521C24.7588 32.9521 26.7261 32.3449 28.3813 31.2989C28.5729 31.1778 28.7603 31.0509 28.9433 30.9183ZM28.4755 27.6046L28.0334 28.0851L27.6028 28.4293C26.2516 29.5096 24.5323 30.159 22.6461 30.159C18.2656 30.159 14.7931 26.6763 14.7931 22.48C14.7931 18.2744 18.267 14.7931 22.6461 14.7931C27.0252 14.7931 30.4991 18.2744 30.4991 22.48C30.4991 24.4414 29.7412 26.2288 28.4755 27.6046Z" fill="black"/>
</svg>
