<svg width="82" height="80" viewBox="0 0 82 80" fill="none" xmlns="http://www.w3.org/2000/svg">
<path d="M49.2773 17.2637L49.4893 17.6768L49.917 17.4971L66.6484 10.4316L62.5977 28.1377L62.4941 28.5898L62.9385 28.7266L80.2959 34.0703L65.8125 45.0293L65.4424 45.3096L65.6943 45.7002L75.5566 60.9512L57.418 60.0361L56.9541 60.0127L56.8965 60.4736L54.6465 78.4961L41.3398 66.1357L41 65.8193L40.6602 66.1357L27.3525 78.4961L25.1035 60.4736L25.0459 60.0127L24.582 60.0361L6.44238 60.9512L16.3057 45.7002L16.5576 45.3096L16.1875 45.0293L1.70312 34.0703L19.0615 28.7266L19.5059 28.5898L19.4023 28.1377L15.3506 10.4316L32.083 17.4971L32.5107 17.6768L32.7227 17.2637L41 1.09668L49.2773 17.2637Z" fill="#99AD65" stroke="black"/>
</svg>
