<svg width="40" height="40" viewBox="0 0 40 40" fill="none" xmlns="http://www.w3.org/2000/svg">
<path d="M12.5 11.5763C12.5 7.13381 16.084 3.54016 20.4955 3.54016C24.9071 3.54016 28.491 7.13381 28.491 11.5763C28.491 16.0188 24.9071 19.6124 20.4955 19.6124C16.084 19.6124 12.5 16.0188 12.5 11.5763Z" fill="#F2E6C5" stroke="black" stroke-width="2"/>
<path d="M30.8912 25.3498L30.8913 25.3498C33.636 26.7813 35.4455 30.1993 36.4256 34.0585C36.5924 34.7156 36.4652 35.3585 36.1786 35.8204C35.8917 36.2829 35.4968 36.5 35.1175 36.5H4.88584C4.50557 36.5 4.10964 36.2822 3.82201 35.8186C3.53477 35.3556 3.4073 34.7113 3.57477 34.0527L2.60561 33.8062L3.57477 34.0527C4.55607 30.1932 6.3682 26.776 9.11474 25.3459C11.7675 23.9647 15.3374 23.5 19.9994 23.5C24.6656 23.5 28.2378 23.9656 30.8912 25.3498Z" fill="#F2E6C5" stroke="black" stroke-width="2"/>
</svg>