<svg width="40" height="40" viewBox="0 0 40 40" fill="none" xmlns="http://www.w3.org/2000/svg">
<path d="M20.4951 3.54016C24.9067 3.54016 28.4912 7.1338 28.4912 11.5763C28.4912 16.0188 24.9067 19.6124 20.4951 19.6124C16.0837 19.6122 12.5 16.0187 12.5 11.5763C12.5 7.13394 16.0838 3.54037 20.4951 3.54016Z" fill="#E9A5C2" stroke="black" stroke-width="2"/>
<path d="M19.999 23.5C24.3734 23.5 27.7869 23.909 30.3828 25.1006L30.8916 25.3496C33.4647 26.6918 35.2161 29.7801 36.2324 33.3408L36.4258 34.0586C36.5926 34.7156 36.4652 35.3584 36.1787 35.8203C35.8918 36.2828 35.4965 36.5 35.1172 36.5H4.88574C4.50551 36.5 4.10987 36.2819 3.82227 35.8184C3.57099 35.4133 3.44159 34.8696 3.52539 34.2988L3.5752 34.0527C4.55649 30.1933 6.3687 26.7758 9.11523 25.3457L9.11426 25.3447C11.7669 23.9636 15.3372 23.5 19.999 23.5Z" fill="#E9A5C2" stroke="black" stroke-width="2"/>
</svg>